<svg width="24" height="29" viewBox="0 0 24 29" fill="none" xmlns="http://www.w3.org/2000/svg">
    <path fill-rule="evenodd" clip-rule="evenodd" d="M0.75 5.75037C0.75 2.98894 2.98858 0.750366 5.75 0.750366H16.1789C17.505 0.750366 18.7768 1.27715 19.7145 2.21483L21.7855 4.2859C22.7232 5.22358 23.25 6.49535 23.25 7.82143V23.2504C23.25 26.0118 21.0114 28.2504 18.25 28.2504H5.75C2.98858 28.2504 0.75 26.0118 0.75 23.2504V5.75037ZM20.75 9.50037V23.2504C20.75 24.6311 19.6307 25.7504 18.25 25.7504H5.75C4.36929 25.7504 3.25 24.6311 3.25 23.2504V5.75037C3.25 4.36965 4.36929 3.25037 5.75 3.25037H14.5V5.75037C14.5 7.82143 16.1789 9.50037 18.25 9.50037H20.75ZM20.6113 7.00037C20.4886 6.64736 20.2871 6.32296 20.0178 6.05367L17.9467 3.9826C17.6774 3.71331 17.353 3.51179 17 3.38904V5.75037C17 6.44072 17.5596 7.00037 18.25 7.00037H20.6113Z" fill="#12131A"/>
    <path d="M7.00024 3.87537C7.00024 3.53019 7.28007 3.25037 7.62524 3.25037H8.87524C9.22042 3.25037 9.50024 3.53019 9.50024 3.87537V5.12537C9.50024 5.47054 9.22042 5.75037 8.87524 5.75037H7.62524C7.28007 5.75037 7.00024 5.47054 7.00024 5.12537V3.87537Z" fill="#12131A"/>
    <path d="M7.00024 8.87537C7.00024 8.53019 7.28007 8.25037 7.62524 8.25037H8.87524C9.22042 8.25037 9.50024 8.53019 9.50024 8.87537V10.1254C9.50024 10.4705 9.22042 10.7504 8.87524 10.7504H7.62524C7.28007 10.7504 7.00024 10.4705 7.00024 10.1254V8.87537Z" fill="#12131A"/>
    <path d="M9.50024 11.3754C9.50024 11.0302 9.78007 10.7504 10.1252 10.7504H11.3752C11.7204 10.7504 12.0002 11.0302 12.0002 11.3754V12.6254C12.0002 12.9705 11.7204 13.2504 11.3752 13.2504H10.1252C9.78007 13.2504 9.50024 12.9705 9.50024 12.6254V11.3754Z" fill="#12131A"/>
    <path d="M7.62524 13.2504C7.28007 13.2504 7.00024 13.5302 7.00024 13.8754V15.1254C7.00024 15.4705 7.28007 15.7504 7.62524 15.7504H8.87524C9.22042 15.7504 9.50024 15.4705 9.50024 15.1254V13.8754C9.50024 13.5302 9.22042 13.2504 8.87524 13.2504H7.62524Z" fill="#12131A"/>
    <path d="M9.50024 16.3754C9.50024 16.0302 9.78007 15.7504 10.1252 15.7504H11.3752C11.7204 15.7504 12.0002 16.0302 12.0002 16.3754V17.6254C12.0002 17.9705 11.7204 18.2504 11.3752 18.2504H10.1252C9.78007 18.2504 9.50024 17.9705 9.50024 17.6254V16.3754Z" fill="#12131A"/>
    <path d="M7.62524 18.2504C7.28007 18.2504 7.00024 18.5302 7.00024 18.8754V20.1254C7.00024 20.4705 7.28007 20.7504 7.62524 20.7504H8.87524C9.22042 20.7504 9.50024 20.4705 9.50024 20.1254V18.8754C9.50024 18.5302 9.22042 18.2504 8.87524 18.2504H7.62524Z" fill="#12131A"/>
    <path d="M9.50024 21.3754C9.50024 21.0302 9.78007 20.7504 10.1252 20.7504H11.3752C11.7204 20.7504 12.0002 21.0302 12.0002 21.3754V22.6254C12.0002 22.9705 11.7204 23.2504 11.3752 23.2504H10.1252C9.78007 23.2504 9.50024 22.9705 9.50024 22.6254V21.3754Z" fill="#12131A"/>
    <path d="M7.62524 23.2504C7.28007 23.2504 7.00024 23.5302 7.00024 23.8754V25.1254C7.00024 25.4705 7.28007 25.7504 7.62524 25.7504H8.87524C9.22042 25.7504 9.50024 25.4705 9.50024 25.1254V23.8754C9.50024 23.5302 9.22042 23.2504 8.87524 23.2504H7.62524Z" fill="#12131A"/>
    <path d="M10.1252 5.75037C9.78007 5.75037 9.50024 6.03019 9.50024 6.37537V7.62537C9.50024 7.97054 9.78007 8.25037 10.1252 8.25037H11.3752C11.7204 8.25037 12.0002 7.97054 12.0002 7.62537V6.37537C12.0002 6.03019 11.7204 5.75037 11.3752 5.75037H10.1252Z" fill="#12131A"/>
</svg>
