<svg width="24" height="29" viewBox="0 0 24 29" fill="none" xmlns="http://www.w3.org/2000/svg">
    <path fill-rule="evenodd" clip-rule="evenodd" d="M0.75 5.75037C0.75 2.98894 2.98858 0.750366 5.75 0.750366H16.1789C17.505 0.750366 18.7768 1.27715 19.7145 2.21483L21.7855 4.2859C22.7232 5.22358 23.25 6.49535 23.25 7.82143V23.2504C23.25 26.0118 21.0114 28.2504 18.25 28.2504H5.75C2.98858 28.2504 0.75 26.0118 0.75 23.2504V5.75037ZM20.75 9.50037V23.2504C20.75 24.6311 19.6307 25.7504 18.25 25.7504H5.75C4.36929 25.7504 3.25 24.6311 3.25 23.2504V5.75037C3.25 4.36965 4.36929 3.25037 5.75 3.25037H14.5V5.75037C14.5 7.82143 16.1789 9.50037 18.25 9.50037H20.75ZM20.6113 7.00037C20.4886 6.64736 20.2871 6.32296 20.0178 6.05367L17.9467 3.9826C17.6774 3.71331 17.353 3.51179 17 3.38904V5.75037C17 6.44072 17.5596 7.00037 18.25 7.00037H20.6113Z" fill="#12131A"/>
    <path d="M8.25024 14.5004C7.55989 14.5004 7.00024 15.06 7.00024 15.7504C7.00024 16.4407 7.55989 17.0004 8.25024 17.0004H15.7502C16.4406 17.0004 17.0002 16.4407 17.0002 15.7504C17.0002 15.06 16.4406 14.5004 15.7502 14.5004H8.25024Z" fill="#12131A"/>
    <path d="M8.25024 19.5004C7.55989 19.5004 7.00024 20.06 7.00024 20.7504C7.00024 21.4407 7.55989 22.0004 8.25024 22.0004H12.0002C12.6906 22.0004 13.2502 21.4407 13.2502 20.7504C13.2502 20.06 12.6906 19.5004 12.0002 19.5004H8.25024Z" fill="#12131A"/>
</svg>
